<svg xmlns="http://www.w3.org/2000/svg" xmlns:xlink="http://www.w3.org/1999/xlink" version="1.1" width="595.2760009765625" height="591" style=""><rect id="backgroundrect" width="100%" height="100%" x="0" y="0" fill="none" stroke="none"/>
<defs>
<clipPath id="clip_3">
<path d="M0,0 H595.276 V591 H0 z" id="svg_1"/>
</clipPath>
</defs>

<g class="currentLayer" style=""><title>Layer 1</title>
<g clip-path="url(#clip_3)" id="svg_2" class="">
<path d="M297.4613,99.490207 C303.7063,99.490207 308.7793,94.418207 308.7793,88.169207 C308.7793,81.921207 303.7063,76.851207 297.4613,76.851207 C291.20529999999997,76.851207 286.1423,81.921207 286.1423,88.169207 C286.1423,94.418207 291.20529999999997,99.490207 297.4613,99.490207 " fill="#1d1d1c" id="svg_3"/>
<path d="M448.1586,416.8003 C441.90659999999997,416.8003 436.83959999999996,421.8653 436.83959999999996,428.1133 C436.83959999999996,434.3693 441.90659999999997,439.4403 448.1586,439.4403 C454.40959999999995,439.4403 459.4856,434.3693 459.4856,428.1133 C459.4856,421.8653 454.40959999999995,416.8003 448.1586,416.8003 " fill="#1d1d1c" id="svg_4"/>
<path d="M297.639,528.8916 C168.948,528.8916 64.245,424.1906 64.245,295.49460000000005 C64.245,166.81160000000006 168.948,62.108600000000024 297.639,62.108600000000024 C426.328,62.108600000000024 531.034,166.81160000000006 531.034,295.49460000000005 C531.034,424.1906 426.328,528.8916 297.639,528.8916 M297.639,55.148600000000044 C165.107,55.148600000000044 57.286,162.95860000000005 57.286,295.49460000000005 C57.286,428.03360000000004 165.107,535.8516000000001 297.639,535.8516000000001 C430.16200000000003,535.8516000000001 537.99,428.03360000000004 537.99,295.49460000000005 C537.99,162.95860000000005 430.16200000000003,55.148600000000044 297.639,55.148600000000044 " fill="#1d1d1c" id="svg_5"/>
<path d="M299.0482,122.0542 C203.48520000000002,122.0542 125.7502,199.80419999999998 125.7502,295.3622 C125.7502,341.6602 143.7752,385.1732 176.5012,417.90619999999996 C177.1842,418.5892 178.0682,418.92019999999997 178.9712,418.92019999999997 C179.85320000000002,418.92019999999997 180.7442,418.5892 181.43220000000002,417.90619999999996 C182.78320000000002,416.55219999999997 182.78320000000002,414.3452 181.43220000000002,412.98319999999995 C150.0012,381.56719999999996 132.69920000000002,339.8012 132.69920000000002,295.3622 C132.69920000000002,203.63819999999998 207.32620000000003,129.0262 299.0482,129.0262 C390.7682,129.0262 465.3872,203.63819999999998 465.3872,295.3622 C465.3872,345.0422 451.23220000000003,380.42019999999997 419.4642,410.05219999999997 C418.0562,411.3682 417.98220000000003,413.5632 419.28520000000003,414.9742 C420.6032,416.38219999999995 422.80920000000003,416.45619999999997 424.20820000000003,415.14419999999996 C457.0532,384.4982 472.3462,346.4332 472.3462,295.3622 C472.3462,199.80419999999998 394.6112,122.0542 299.0482,122.0542 " fill="#1d1d1c" id="svg_6"/>
<path d="M216.0726,425.6807 C216.5786,425.1187 216.8416,424.1457 216.8416,422.7707 C216.8416,420.4027 215.8076,419.2187 213.7336,419.2187 C211.1766,419.2187 208.95159999999998,420.6467 207.0636,423.5407 C205.1676,426.4177 203.5036,431.6307 202.0956,439.1737 C200.0756,449.5077 197.9996,457.3997 195.8776,462.8107 C195.55759999999998,458.9767 194.5446,452.4477 192.8716,443.1947 C191.1796,433.9327 190.3456,426.5677 190.3646,421.0687 C190.3646,420.2907 190.2796,419.7647 190.0916,419.4747 C189.92159999999998,419.2017 189.5476,419.0607 188.99259999999998,419.0607 C188.6916,419.0607 188.2516,419.1187 187.6696,419.2187 L183.66559999999998,419.7487 C182.60559999999998,419.8977 181.9476,420.0667 181.6766,420.2367 C181.4116,420.4147 181.1326,420.8947 180.8666,421.6817 L179.6476,425.2427 C178.3496,428.9727 176.6396,434.9637 174.48059999999998,443.2597 L173.34359999999998,447.8517 C169.6906,462.2057 165.9886,469.4057 162.21359999999999,469.4057 C161.2556,469.4057 160.4286,468.9747 159.7326,468.0727 C159.0396,467.1907 158.58859999999999,465.8537 158.3816,464.0697 C158.1746,462.2847 157.66559999999998,461.4027 156.8596,461.4027 C156.1366,461.4027 154.8766,462.2307 153.0846,463.8827 C151.30759999999998,465.5347 150.41559999999998,466.7727 150.41559999999998,467.5837 C150.41559999999998,468.8967 151.1566,470.3257 152.63459999999998,471.8487 C154.11759999999998,473.3887 156.0686,474.1377 158.4956,474.1377 C161.28359999999998,474.1377 163.6866,473.2187 165.70759999999999,471.3757 C167.7336,469.5377 169.3876,467.2437 170.6856,464.52070000000003 C171.9716,461.8127 172.9776,459.2577 173.7006,456.8657 C174.4256,454.4887 175.7586,449.7437 177.6936,442.6767 C179.62959999999998,435.6057 180.6806,432.0247 180.8666,431.9197 C181.2896,438.2917 182.1356,444.6057 183.4046,450.8537 C184.6616,457.0967 185.3956,460.9227 185.6006,462.3297 C185.7986,463.7297 185.9776,465.8447 186.14759999999998,468.6807 C186.3156,471.5217 186.4476,473.1447 186.5306,473.5757 C186.6156,474.0057 187.1436,474.1967 188.1016,474.1377 L192.19459999999998,473.6537 C193.2116,473.54970000000003 193.8476,473.4097 194.09359999999998,473.23969999999997 C194.35559999999998,473.0577 194.8996,472.1877 195.7256,470.6267 C196.5626,469.0457 197.59459999999999,466.6447 198.84359999999998,463.3727 C200.0666,460.1027 201.19559999999998,456.2887 202.1706,451.9127 L204.93959999999998,439.2777 C206.02259999999998,434.3837 207.21359999999999,431.1337 208.5006,429.5737 C209.7886,428.0037 211.25459999999998,427.0927 212.8596,426.8857 C214.47459999999998,426.6417 215.5476,426.2477 216.0726,425.6807 " fill="#1d1d1c" id="svg_7"/>
<path d="M402.2572,460.60353 C400.1052,464.80152999999996 397.7942,466.90553 395.3142,466.90553 C394.19620000000003,466.90553 393.3222,466.49152999999995 392.6772,465.68352999999996 C392.0272,464.87552999999997 391.70820000000003,463.76653 391.70820000000003,462.37953 C391.70820000000003,458.84853 392.8102,454.88153 395.0162,450.48553 C397.2022,446.10452999999995 399.48720000000003,443.91053 401.8432,443.91053 C402.9242,443.91053 403.8062,444.35753 404.4722,445.24352999999996 C405.1522,446.12453 405.4782,447.30953 405.4782,448.81253 C405.4782,452.46752999999995 404.4062,456.40153 402.2572,460.60353 M324.4382,460.51653 C322.1902,464.81852999999995 319.8052,466.98353 317.2882,466.98353 C316.2552,466.98353 315.3922,466.54852999999997 314.71320000000003,465.70453 C314.05920000000003,464.85952999999995 313.7192,463.74953 313.7192,462.37953 C313.7192,458.76953 314.8562,454.81552999999997 317.1102,450.50552999999996 C319.3722,446.20752999999996 321.7762,444.05953 324.29720000000003,444.05953 C325.3652,444.05953 326.2142,444.45252999999997 326.8312,445.26453 C327.4692,446.05953 327.7922,447.15653 327.7922,448.58052999999995 C327.7922,452.21553 326.67420000000004,456.19453 324.4382,460.51653 M221.34120000000001,447.93852999999996 C222.8622,445.41353 224.4592,444.13352999999995 226.12320000000003,444.13352999999995 C227.8872,444.13352999999995 228.7792,445.35553 228.7792,447.77752999999996 C228.7792,452.68352999999996 225.5412,456.04452999999995 219.0602,457.87152999999995 C219.0602,453.80053 219.83020000000002,450.48553 221.34120000000001,447.93852999999996 M295.2622,430.49253 C297.0382,425.83052999999995 298.41020000000003,423.50253 299.33820000000003,423.50253 C299.7712,423.50253 300.1182,423.78553 300.4012,424.34753 C300.6822,424.92352999999997 300.8152,425.68053 300.8152,426.61253 C300.8152,429.81753 299.8192,433.62253 297.8172,438.04753 C295.8172,442.49053 293.2232,446.48152999999996 290.0132,450.05453 C291.7202,441.67053 293.4782,435.15353 295.2622,430.49253 M414.7482,466.82253 C414.09020000000004,466.82253 413.5642,466.53252999999995 413.1512,465.94853 C412.7482,465.36553 412.5622,464.59452999999996 412.5622,463.63853 C412.5622,459.53952999999996 415.0872,447.57453 420.1302,427.75052999999997 C421.4022,422.79953 422.0272,420.17852999999997 422.0272,419.89752999999996 C422.0272,419.49152999999995 421.7742,419.29253 421.2692,419.29253 C419.7292,419.29253 416.7392,419.80152999999996 412.3062,420.84553 L406.8902,443.53452999999996 C406.0042,442.61453 405.1802,441.97253 404.4352,441.59952999999996 C403.6942,441.21052999999995 402.6582,441.03753 401.3552,441.03753 C396.6102,441.03753 392.19620000000003,443.43852999999996 388.0812,448.24953 C384.8022,452.10853 382.85220000000004,456.22153 382.1922,460.59553 C378.0972,465.42453 375.1282,467.84452999999996 373.2882,467.84452999999996 C372.0502,467.84452999999996 371.4212,467.09553 371.4212,465.56352999999996 C371.4212,464.42453 372.1702,461.94552999999996 373.6652,458.12453 C375.8432,452.55953 376.9232,448.56852999999995 376.9232,446.13352999999995 C376.9232,444.67553 376.4922,443.45853 375.63620000000003,442.49053 C374.77520000000004,441.50453 373.7022,441.03753 372.4062,441.03753 C370.5272,441.03753 368.3582,441.91553 365.9272,443.70353 C363.4922,445.48753 360.2052,448.67953 356.0532,453.31253 C356.6652,450.31552999999997 357.9322,446.19153 359.8872,440.95052999999996 L350.6252,442.73452999999995 C348.5292,447.28952999999996 347.00620000000004,451.38752999999997 346.0502,455.02252999999996 C345.5822,456.81552999999997 345.2332,458.66753 344.9962,460.57253 C342.87620000000004,462.70252999999997 341.22020000000003,464.28652999999997 340.04720000000003,465.32752999999997 C338.8552,466.37852999999996 337.7662,466.90553 336.7882,466.90553 C335.2402,466.90553 334.4782,465.81653 334.4782,463.63853 C334.4782,461.56052999999997 335.3312,457.73852999999997 337.0622,452.13653 L340.4072,441.03753 H338.27520000000004 L330.5322,445.30953 C329.2572,442.40752999999995 327.0382,440.95052999999996 323.8832,440.95052999999996 C321.3832,440.95052999999996 318.4932,442.00953 315.2432,444.13352999999995 C311.97220000000004,446.26552999999996 309.2952,449.04053 307.2112,452.47652999999997 C305.5982,455.13853 304.6252,457.90853 304.26120000000003,460.77952999999997 C301.25120000000004,463.74253 298.9832,465.71452999999997 297.4802,466.66553 C295.9392,467.65853 294.48220000000003,468.14752999999996 293.1112,468.14752999999996 C291.77020000000005,468.14752999999996 290.70820000000003,467.50953 289.8912,466.20853 C289.08320000000003,464.93453 288.6772,463.17852999999997 288.6772,460.97652999999997 C288.6772,459.99152999999995 288.77320000000003,458.18953 288.9802,455.55652999999995 C294.03020000000004,450.07153 297.7522,444.90452999999997 300.1372,440.07653 C302.5162,435.24953 303.7062,430.24852999999996 303.7062,425.08153 C303.7062,423.28053 303.4642,421.83052999999995 302.9922,420.74953 C302.5322,419.66953 301.9322,419.13552999999996 301.1872,419.13552999999996 C301.05920000000003,419.13552999999996 300.8152,419.18552999999997 300.5142,419.29253 L290.8752,422.84952999999996 C287.5902,429.12153 284.8002,435.98253 282.4982,443.42152999999996 C280.42420000000004,450.09553 279.3392,455.86953 279.1302,460.83153 L276.2792,463.52252999999996 C273.6952,465.93152999999995 271.7432,467.12453 270.42920000000004,467.12453 C268.80420000000004,467.12453 267.9952,465.93653 267.9952,463.55953 C267.9952,462.32153 268.4462,460.16053 269.32820000000004,457.07253 C270.21220000000005,453.99152999999995 271.8452,448.64653 274.2332,441.01252999999997 L263.91020000000003,443.11953 L258.9412,459.27853 C258.4602,460.85652999999996 257.25120000000004,462.73553 255.2972,464.87552999999997 C253.34320000000002,467.00852999999995 251.71820000000002,468.07253 250.40220000000002,468.07253 C248.5882,468.07253 247.6682,466.85952999999995 247.6682,464.43352999999996 C247.68820000000002,461.00453 249.7722,453.21752999999995 253.94420000000002,441.09053 L243.80020000000002,443.11953 C241.2272,450.08153 239.59320000000002,455.88953 238.89020000000002,460.57052999999996 C235.86720000000003,463.62953 233.5902,465.61553 232.0762,466.49152999999995 C230.5662,467.39353 228.97820000000002,467.84452999999996 227.3052,467.84452999999996 C223.0232,467.84452999999996 220.38320000000002,465.38552999999996 219.3682,460.45052999999996 C230.4992,457.19253 236.0602,452.94052999999997 236.0602,447.70353 C236.0602,445.73253 235.3562,444.13352999999995 233.93820000000002,442.93352999999996 C232.5282,441.71153 230.65120000000002,441.09952999999996 228.28220000000002,441.09952999999996 C223.7662,441.09952999999996 219.63320000000002,443.26853 215.9222,447.61152999999996 C212.2012,451.94253 210.34320000000002,456.79852999999997 210.34320000000002,462.15252999999996 C210.34320000000002,465.74953 211.4032,468.64353 213.5192,470.84252999999995 C215.62120000000002,473.04152999999997 218.3922,474.13752999999997 221.8382,474.13752999999997 C224.92020000000002,474.13752999999997 227.7372,473.38853 230.2922,471.88552999999996 C232.72320000000002,470.45752999999996 235.4592,468.25453 238.48420000000002,465.33052999999995 V465.34353 C238.48420000000002,468.07253 239.0732,470.24253 240.2392,471.82853 C241.3972,473.42553 242.9452,474.21653 244.8702,474.21653 C246.95420000000001,474.21653 249.11520000000002,473.49253 251.3152,472.03553 C253.5132,470.58952999999997 256.0092,468.32552999999996 258.78920000000005,465.27353 C258.78920000000005,467.99453 259.3152,470.15553 260.3962,471.75253 C261.4762,473.35152999999997 263.0172,474.13752999999997 265.0082,474.13752999999997 C266.8032,474.13752999999997 268.8312,473.38853 271.0772,471.88552999999996 C273.2722,470.42152999999996 275.9842,468.15952999999996 279.21320000000003,465.12852999999996 C279.5292,467.48053 280.29720000000003,469.43653 281.5292,470.99553 C283.1832,473.09853 285.3732,474.13752999999997 288.0772,474.13752999999997 C290.42420000000004,474.13752999999997 292.8972,473.38853 295.48720000000003,471.88552999999996 C297.9862,470.43253 300.9072,468.18653 304.2052,465.18653 C304.4622,467.42053 305.1822,469.37852999999996 306.4112,471.02052999999995 C307.9732,473.10652999999996 309.85020000000003,474.13752999999997 312.0862,474.13752999999997 C314.3672,474.13752999999997 316.5662,473.27653 318.6992,471.56753 C320.8402,469.84452999999996 323.1712,467.17852999999997 325.7052,463.55953 C325.4692,470.62653 327.35720000000003,474.13752999999997 331.3612,474.13752999999997 C332.9462,474.13752999999997 334.6192,473.55852999999996 336.3662,472.39052999999996 C338.04920000000004,471.28553 340.8292,468.87753 344.6692,465.25653 C344.6562,465.70653 344.6302,466.15153 344.6302,466.60652999999996 C344.6302,468.25852999999995 344.7712,470.80453 345.0442,474.21653 L353.4322,472.24152999999995 C353.4322,469.96853 353.4692,468.16452999999996 353.5562,466.82253 C353.6762,465.02952999999997 353.9332,463.05453 354.3062,460.89353 C354.5502,459.63453 355.1172,458.42953 356.0532,457.30352999999997 L358.1772,454.84452999999996 C358.9552,453.92053 359.7002,453.11453 360.3752,452.41053 C361.1612,451.57453 361.8652,450.86152999999996 362.49920000000003,450.27853 C363.2112,449.65752999999995 363.8322,449.15153 364.3662,448.81253 C364.9382,448.43552999999997 365.4092,448.26953 365.7572,448.26953 C366.3952,448.26953 366.7142,448.67152999999996 366.7142,449.48753 C366.7142,450.29852999999997 366.1132,452.19552999999996 364.92920000000004,455.18352999999996 C362.70120000000003,460.74453 361.5842,464.87552999999997 361.5842,467.58353 C361.5842,469.57552999999996 362.1102,471.17352999999997 363.1452,472.35353 C364.1882,473.54953 365.5372,474.13752999999997 367.2522,474.13752999999997 C371.3612,474.13752999999997 376.2792,471.12953 382.0142,465.14552999999995 C382.22720000000004,467.37152999999995 382.9902,469.36852999999996 384.3802,471.09452999999996 C386.03520000000003,473.12753 387.9242,474.13752999999997 390.0722,474.13752999999997 C392.0562,474.13752999999997 394.2632,473.27653 396.7052,471.52553 C399.1402,469.78252999999995 401.4042,467.22753 403.4662,463.86253 C403.4952,467.22753 404.0332,469.78252999999995 405.0852,471.52553 C406.1372,473.27653 407.5522,474.13752999999997 409.35020000000003,474.13752999999997 C410.8152,474.13752999999997 412.5042,473.50352999999996 414.4132,472.22553 C416.3252,470.95453 419.10020000000003,468.50253 422.7422,464.89752999999996 V460.51653 C419.0332,464.72753 416.36220000000003,466.82253 414.7482,466.82253 " fill="#1d1d1c" id="svg_8"/>
<path d="M145.3949,416.8003 C139.1369,416.8003 134.0679,421.8653 134.0679,428.1323 C134.0679,434.3693 139.1369,439.4403 145.3949,439.4403 C151.6319,439.4403 156.7049,434.3693 156.7049,428.1323 C156.7049,421.8653 151.6319,416.8003 145.3949,416.8003 " fill="#1d1d1c" id="svg_9"/>
<path d="M356.0609,361.75239 C358.61990000000003,365.83038999999997 365.41790000000003,373.09639 366.8749,377.68838999999997 C366.9579,377.92339 366.9659,378.61539 366.9659,378.61539 C368.5849,381.94439 368.0879,385.46738999999997 366.0469,386.45239 C364.01890000000003,387.44639 362.8929,385.51339 359.4439,382.28339 C359.4269,382.26339 359.4349,382.24239 359.4269,382.21339 L357.2069,380.08139 C357.2069,380.08139 354.4669,377.62139 353.9129,376.54939 C353.2169,375.23639 352.86990000000003,371.89139 351.6189,371.08038999999997 C350.9809,370.67039 348.6999,370.81939 348.2409,371.17539 C344.8499,373.83339 343.1269,377.68838999999997 338.7719,377.68838999999997 C335.69190000000003,377.68838999999997 330.79290000000003,376.20139 328.6359,374.05239 C309.3729,360.10039 301.3199,333.52439 301.3199,333.52439 L301.3959,333.50338999999997 C300.7189,331.71939 300.3549,329.69039 300.4109,327.41839 C300.6159,319.60139 305.9149,313.27139 312.7059,313.27139 C316.6219,313.27139 320.0709,315.41139 322.3229,318.69839 C324.2029,317.49839 326.4879,317.14239 328.8979,316.79039 C336.4859,315.71339 340.5929,321.73339 340.5929,327.83239 C340.5929,331.94739 339.11990000000003,335.37539 335.5799,337.27139 C339.6539,336.75838999999996 346.4349,340.55039 350.4929,343.53539 L352.2029,344.72438999999997 C354.9719,346.83539 355.5099,347.49339 357.4809,347.98239 C358.6949,347.72938999999997 359.4069,347.03439 358.00690000000003,344.04439 C357.3399,342.65339 356.0609,337.61939 356.0609,337.61939 C356.0609,337.61939 351.2619,323.86539 349.34590000000003,319.41039 C344.2289,307.45339 358.6819,310.63739 358.6819,310.63739 C358.6819,310.63739 365.6239,313.60639 360.3919,305.74439 C359.5099,304.43939 356.9559,302.08038999999997 356.8609,300.51039 C356.8519,300.16339 357.4809,299.31039 357.7749,299.48039 C362.4409,302.21238999999997 370.0679,309.04339 374.6139,322.59039 C374.9529,323.56739 375.7519,328.95839 370.85790000000003,324.29639 C369.0659,322.59039 363.3439,317.81639 363.3439,317.81639 C363.3439,317.81639 356.1729,314.39739 359.4809,321.10438999999997 C361.3519,324.90839 372.6799,331.69039 372.6799,331.69039 C372.6799,331.69039 383.7259,342.85239 383.0389,350.82639 C382.9559,351.70439 382.4759,354.11739 379.50690000000003,350.70639 C376.3069,347.01339 369.60790000000003,338.92339 365.9639,336.58839 C364.8089,335.85539 358.8519,335.26339 363.2939,340.80339 C367.3929,345.93239 366.03090000000003,343.03039 376.8859,355.48839 C380.8979,360.08439 387.8079,367.54839 384.9759,378.48239 C384.4459,380.49539 383.3779,378.48239 383.3779,378.48239 C383.3779,378.48239 365.5879,355.59139 357.6599,356.05138999999997 C355.9609,356.16339 354.0699,358.56838999999997 356.0609,361.75239 M370.2949,369.48639 C375.5899,373.41139 381.7259,389.60739 385.8299,396.12838999999997 C393.3429,408.07739 394.1969,399.04339 394.01890000000003,396.98539 C387.3609,320.14739 375.2429,309.21739 359.0209,291.28839 C358.4959,290.70439 357.8869,290.29239 357.6139,291.03139 C350.6419,309.88839 329.5929,307.15539 329.5929,307.15539 C329.5929,307.15539 318.0789,307.40839 311.2229,306.99439 C305.7529,306.67539 303.6879,305.93439 299.2749,304.27039 C295.1029,302.69239 294.1549,304.60539 294.1549,304.60539 C294.1549,304.60539 286.47090000000003,325.78238999999996 300.4749,348.47938999999997 C304.5159,355.04539 313.11990000000003,367.87939 317.8909,373.92839 C330.5159,389.98438999999996 351.5149,380.42039 351.5149,380.42039 C351.5149,380.42039 357.9239,390.12539 360.9099,392.53938999999997 C371.8349,401.40738999999996 378.1159,391.97639 377.8099,387.59938999999997 C377.4609,382.78039 371.1479,375.63839 368.7499,370.51739 C368.5649,370.10739 369.91790000000003,369.22539 370.2949,369.48639 " fill="#1d1d1c" id="svg_10"/>
<path d="M328.4379,393.4414 C329.0129,391.1024 334.2429,385.75739999999996 334.2429,385.75739999999996 C334.2429,385.75739999999996 328.2969,384.1054 326.3059,383.6254 C317.6839,381.5754 314.7129,384.80039999999997 314.0109,387.9844 C313.7189,389.2514 314.4339,393.18039999999996 314.4339,393.18039999999996 C314.4339,393.18039999999996 315.7189,395.5824 317.0819,393.27139999999997 C317.5159,392.5394 317.4199,390.7174 317.76890000000003,389.9394 C318.5289,388.2374 320.0489,389.1974 320.3229,389.7774 C320.6329,390.4524 320.25690000000003,392.02139999999997 320.3229,392.7664 C320.38890000000004,393.4414 321.6089,396.6914 323.0599,393.1024 C323.3209,392.4274 323.1299,390.68039999999996 323.7509,390.2864 C324.3139,389.9094 326.1359,390.1834 326.4749,390.8044 C326.7939,391.3834 325.8539,392.7834 325.96590000000003,393.4414 C326.56190000000004,397.1964 328.0899,394.8034 328.4379,393.4414 " fill="#1d1d1c" id="svg_11"/>
<path d="M345.5746,393.8638 C345.96759999999995,394.36080000000004 347.66459999999995,393.99580000000003 348.11659999999995,393.5368 C348.8286,392.8208 348.52959999999996,390.48080000000004 348.9156,389.5538 C349.5816,387.9558 352.31359999999995,383.46380000000005 352.31359999999995,383.46380000000005 C352.31359999999995,383.46380000000005 344.9036,385.1358 342.40659999999997,384.96680000000003 C335.2686,384.53580000000005 333.8286,389.3638 333.9156,392.1458 C333.9726,393.4418 334.0266,396.5638 335.15259999999995,397.19680000000005 C336.01759999999996,397.6768 338.3656,396.3938 338.7426,395.44980000000004 C339.01559999999995,394.7128 337.70759999999996,392.94480000000004 338.21759999999995,392.31080000000003 C338.49859999999995,391.95980000000003 339.7736,391.8428 340.07559999999995,392.21180000000004 C340.55559999999997,392.76680000000005 339.6746,394.5138 340.07559999999995,395.1138 C340.5266,395.7728 342.7466,395.63980000000004 343.2306,395.0188 C343.8146,394.3068 342.6226,391.97580000000005 343.2886,391.33880000000005 C343.6816,390.96180000000004 345.1556,390.96180000000004 345.51559999999995,391.3758 C345.9006,391.8638 345.1776,393.3878 345.5746,393.8638 " fill="#1d1d1c" id="svg_12"/>
<path d="M303.7728,281.2446 C303.7728,284.9556 306.24280000000005,287.9616 309.3038,287.9616 C312.36580000000004,287.9616 314.85580000000004,284.9556 314.85580000000004,281.2446 C314.85580000000004,277.52459999999996 312.36580000000004,274.5186 309.3038,274.5186 C306.24280000000005,274.5186 303.7728,277.52459999999996 303.7728,281.2446 " fill="#1d1d1c" id="svg_13"/>
<path d="M338.4115,281.1221 C338.4115,277.4111 335.9235,274.3961 332.8725,274.3961 C329.8075,274.3961 327.3195,277.4111 327.3195,281.1221 C327.3195,284.8421 329.8075,287.8481 332.8725,287.8481 C335.9235,287.8481 338.4115,284.8421 338.4115,281.1221 " fill="#1d1d1c" id="svg_14"/>
<path d="M315.4291,292.5635 L319.2801,300.34549999999996 L322.5501,292.5635 L319.2801,286.8995 z" fill="#1d1d1c" id="svg_15"/>
<path d="M287.3256,280.0522 C285.5596,294.95020000000005 297.8356,304.7962 312.5166,304.29920000000004 C312.5166,304.29920000000004 300.5326,296.34220000000005 297.6496,290.67620000000005 C296.7576,288.9202 296.3056,286.70120000000003 296.0246,284.5812 C294.7656,274.84520000000003 299.4806,266.18420000000003 306.5816,265.2552 C311.4466,264.60720000000003 316.1436,267.83820000000003 319.0186,273.06320000000005 C319.3356,273.04220000000004 319.6566,273.04220000000004 319.9746,273.0242 C323.2546,267.22520000000003 328.7276,263.64820000000003 334.4576,264.37120000000004 C342.7336,265.41420000000005 348.3686,274.94120000000004 347.0356,285.63320000000004 C345.9466,294.48220000000003 340.2086,300.6062 333.8566,302.8792 C332.5156,303.3672 328.5246,304.9162 328.5246,304.9162 C347.42060000000004,304.41920000000005 358.7486,295.53420000000006 357.3936,280.14720000000005 C356.1196,265.7352 342.2736,253.87720000000002 322.7206,253.87720000000002 C303.1796,253.87720000000002 289.0246,265.7062 287.3256,280.0522 " fill="#1d1d1c" id="svg_16"/>
<path d="M249.4555,257.5044 C248.9755,258.66839999999996 249.2275,260.00539999999995 250.1305,260.8954 L271.10450000000003,274.39639999999997 C271.9595,274.82939999999996 272.9095,275.0544 273.8475,275.0544 C275.4725,275.0544 276.91949999999997,274.37539999999996 277.8405,273.2124 C278.6275,272.1984 279.3965,270.33939999999996 278.6375,267.37739999999997 L277.2005,250.0724 L281.2765,244.63439999999997 C282.3475,243.56239999999997 282.3845,242.02439999999999 281.9435,240.96239999999997 C281.5395,239.96639999999996 280.7325,239.35439999999997 279.8295,239.35439999999997 C279.4185,239.35439999999997 278.8075,239.48639999999997 278.1945,240.08739999999997 L274.5615,243.71339999999998 L269.5745,238.73439999999997 C268.7835,237.27739999999997 267.6945,237.05139999999997 267.1305,237.05139999999997 C266.2105,237.05139999999997 265.3285,237.59839999999997 264.7715,238.50939999999997 C263.9955,239.74939999999998 263.9675,241.43239999999997 264.6885,242.86939999999998 L270.5045,248.77639999999997 L271.8005,266.8264 L254.3945,256.11539999999997 C252.3095,255.08039999999997 250.1785,255.74939999999998 249.4555,257.5044 " fill="#1d1d1c" id="svg_17"/>
<path d="M279.1361,402.5166 C281.7461,400.9556 283.1551,398.75759999999997 284.2641,396.43059999999997 L287.9281,403.52259999999995 L288.2091,403.68059999999997 C288.9501,404.1356 289.9091,404.3966 290.8201,404.3966 C292.0991,404.3966 293.0561,403.9076 293.4511,403.0426 C293.7331,402.4506 293.8441,401.45259999999996 292.8301,400.24359999999996 L286.52909999999997,390.4436 C286.2921,389.55359999999996 285.5971,388.9616 284.7241,388.9616 C283.4751,388.9616 282.2361,390.1706 281.3241,392.2656 C280.6001,393.9386 279.1171,395.3006 277.4161,396.8616 C276.4491,397.7636 275.3211,398.7786 274.2701,399.9416 C273.1891,401.12559999999996 273.4541,402.1026 273.6141,402.4796 C274.2611,403.94559999999996 276.6271,404.01959999999997 279.1361,402.5166 " fill="#1d1d1c" id="svg_18"/>
<path d="M254.8832,391.9302 C249.4072,393.10220000000004 244.2312,394.23220000000003 241.2822,395.60220000000004 C239.6102,395.8682 238.54819999999998,397.9952 238.5692,399.4282 C238.57719999999998,400.2812 238.97019999999998,400.9392 239.6282,401.2212 L240.4012,402.6372 L241.11219999999997,402.5912 C259.5802,401.6062 274.2032,394.50120000000004 276.2792,388.4812 C276.9382,386.5852 276.42019999999997,384.78020000000004 274.8162,383.3722 C234.1352,347.80420000000004 247.9692,328.8632 260.1612,312.1442 C265.7992,304.4272 271.1312,297.1302 269.48019999999997,289.2412 C268.1012,282.6432 262.1432,276.47220000000004 250.74919999999997,269.8222 C247.4442,267.8942 244.69219999999999,266.60020000000003 242.25719999999998,265.45120000000003 C237.84619999999998,263.3672 234.35019999999997,261.7232 229.4662,257.3742 C226.68619999999999,255.3162 224.05519999999999,255.77820000000003 223.0032,258.10720000000003 C222.32619999999997,259.6472 222.5332,261.55420000000004 223.51119999999997,262.6442 L243.7062,275.4402 C254.3672,280.7842 259.9262,285.5772 261.2322,290.5162 C262.6682,295.94620000000003 258.93219999999997,301.5172 254.19719999999998,308.5722 C250.39319999999998,314.2482 246.0912,320.6732 243.38619999999997,328.6562 C237.95819999999998,344.70320000000004 240.5022,358.1172 269.4232,386.9782 C269.6282,387.1652 269.6572,387.2812 269.6682,387.2812 C269.2722,388.82120000000003 260.2742,390.77520000000004 254.8832,391.9302 " fill="#1d1d1c" id="svg_19"/>
<path d="M261.3627,181.46579 C235.45970000000003,175.37978999999999 211.1877,200.93279 211.75070000000002,221.46779 C181.52470000000002,235.66079 198.34670000000003,290.15979 229.80370000000002,283.91279 C238.0677,282.75779 236.92370000000003,273.24979 230.2177,276.04979000000003 C198.6757,283.86478999999997 190.10970000000003,228.22279 219.4327,231.32979 C225.89570000000003,233.23879 229.55970000000002,225.54479 223.28570000000002,220.49079 C217.4807,205.99579 238.39870000000002,181.84179 258.9037,197.10779 C262.08770000000004,198.85479 265.6947,198.67678999999998 268.9717,191.31379 C284.7817,155.68878999999998 322.0787,179.88779 317.7397,200.17879 C315.7857,206.37979 320.55670000000003,214.34679 327.13370000000003,208.55879 C342.9327,194.64779 364.7217,210.50479 352.2977,228.77579 C346.9777,236.38479 348.2407,240.26679000000001 357.9777,241.49878999999999 L362.06370000000004,232.64679 C371.3917,211.05979 356.0607,187.96779 327.86670000000004,194.39179 C331.1537,163.01479 277.8757,147.62779 261.3627,181.46579 " fill="#1d1d1c" id="svg_20"/>
<path d="M107.5853,390.33399 L101.0943,375.94698999999997 L104.9713,374.19798999999995 L108.97030000000001,383.05998999999997 L113.1523,381.17199 L109.37830000000001,372.80699 L113.3143,371.03099 L117.08930000000001,379.39799 L121.81230000000001,377.26599 L117.66130000000001,368.06798999999995 L121.65530000000001,366.26498999999995 L128.2983,380.98798999999997 z" fill="#1e1e1c" id="svg_21"/>
<path d="M94.181,355.24409 L98.771,354.20109 C98.68599999999999,355.20609 98.684,356.14409 98.764,357.01609 C98.844,357.88809000000003 99.009,358.70309000000003 99.259,359.46309 C99.64399999999999,360.62609000000003 100.128,361.47509 100.713,362.00509000000005 C101.297,362.53709000000003 101.914,362.69609 102.563,362.48109000000005 C103.018,362.33209000000005 103.36099999999999,362.03409000000005 103.589,361.58709000000005 C103.818,361.14109 103.934,360.54809 103.93599999999999,359.80609000000004 C103.934,359.56009 103.92999999999999,359.20809 103.92399999999999,358.74809000000005 C103.90899999999999,356.01409 104.073,354.14209000000005 104.41199999999999,353.13209 C104.749,352.17809000000005 105.237,351.40209000000004 105.87299999999999,350.79709 C106.511,350.19509000000005 107.336,349.72709000000003 108.348,349.39209000000005 C110.728,348.60709 112.803,348.80009 114.57499999999999,349.96509000000003 C116.346,351.13309000000004 117.726,353.21509000000003 118.714,356.21309 C119.072,357.29509 119.353,358.40709000000004 119.56,359.54309 C119.768,360.68209 119.89699999999999,361.83909000000006 119.946,363.01309000000003 L114.972,364.11409000000003 C115.094,362.95109 115.116,361.85109000000006 115.037,360.81709 C114.96,359.78209000000004 114.782,358.84009000000003 114.5,357.98909000000003 C114.127,356.85409000000004 113.618,356.02909000000005 112.976,355.51109 C112.334,354.99409 111.648,354.85509 110.919,355.09509 C110.019,355.39109 109.551,356.71409000000006 109.51599999999999,359.05909 C109.512,359.62209 109.503,360.05709 109.493,360.36509 C109.431,362.66309 109.057,364.41409000000004 108.37,365.61709 C107.684,366.82009000000005 106.581,367.67309 105.062,368.17409000000004 C102.896,368.88809000000003 100.975,368.66209000000003 99.3,367.49909 C97.624,366.33309 96.31,364.30309000000005 95.355,361.40709000000004 C95.003,360.34509 94.73,359.30109000000004 94.533,358.27709000000004 C94.335,357.25209 94.218,356.24209 94.181,355.24409 " fill="#1e1e1c" id="svg_22"/>
<path d="M88.8031,329.9287 L93.5601,329.4677 C93.2351,330.4077 93.0421,331.3467 92.9841,332.2847 C92.9251,333.2217 92.9941,334.1597 93.1921,335.0997 C93.6581,337.3237 94.6781,338.9547 96.2481,339.9977 C97.8191,341.0387 99.6951,341.3307 101.8741,340.8737 C104.0661,340.4117 105.6681,339.3747 106.6861,337.7607 C107.7021,336.1477 107.97710000000001,334.2237 107.50710000000001,331.9907 C107.3231,331.1157 107.0281,330.2437 106.6211,329.3737 C106.2161,328.50669999999997 105.7011,327.6537 105.0771,326.8157 L109.9941,325.40569999999997 C110.5101,326.4077 110.9531,327.4267 111.3231,328.45869999999996 C111.6931,329.4917 111.9911,330.5517 112.2201,331.6367 C113.06909999999999,335.6737 112.6961,339.0367 111.0981,341.7267 C109.5021,344.4157 106.85210000000001,346.1497 103.1481,346.9287 C99.6121,347.6737 96.5721,347.1517 94.0281,345.3657 C91.4851,343.5807 89.8121,340.7847 89.0101,336.9757 C88.7431,335.7047 88.5911,334.4747 88.5541,333.2887 C88.5171,332.1047 88.6011,330.9847 88.8031,329.9287 " fill="#1e1e1c" id="svg_23"/>
<path d="M87.2182,323.8428 L86.6942,317.8038 L99.86919999999999,316.6618 C101.8032,316.4918 103.1742,316.0838 103.98519999999999,315.43580000000003 C104.7952,314.7878 105.14519999999999,313.8318 105.0352,312.5688 C104.9232,311.2728 104.37519999999999,310.3358 103.39519999999999,309.75780000000003 C102.41319999999999,309.1778 101.02019999999999,308.9688 99.2152,309.1248 L86.0392,310.2688 L85.5402,304.5188 L98.7152,303.3738 C102.05019999999999,303.0838 104.61919999999999,303.6718 106.4212,305.1368 C108.22319999999999,306.6008 109.2632,308.94780000000003 109.54419999999999,312.1778 C109.8222,315.3738 109.1942,317.85380000000004 107.6622,319.6198 C106.1302,321.3858 103.7072,322.4098 100.3932,322.69780000000003 z" fill="#1e1e1c" id="svg_24"/>
<path d="M85.4408,297.6372 L85.85379999999999,281.8592 L90.1058,281.9712 L89.8518,291.6902 L94.43979999999999,291.8102 L94.6788,282.6342 L98.9958,282.7472 L98.75479999999999,291.9232 L103.9348,292.0582 L104.19879999999999,281.9712 L108.57979999999999,282.0862 L108.1568,298.2312 z" fill="#1e1e1c" id="svg_25"/>
<path d="M86.4076,275.2813 L87.16760000000001,269.2673 L105.2536,271.5533 L106.3966,262.4933 L110.85560000000001,263.05629999999996 L108.9516,278.1293 z" fill="#1e1e1c" id="svg_26"/>
<path d="M96.3353,246.9224 L103.9423,251.76340000000002 L105.28630000000001,246.13240000000002 zM90.58330000000001,249.1824 L92.28030000000001,242.0744 L116.38130000000001,238.9814 L114.8773,245.28040000000001 L109.8203,245.7354 L107.7893,254.2434 L112.0783,257.0094 L110.6863,262.8424 z" fill="#1e1e1c" id="svg_27"/>
<path d="M105.7172,214.94339 L111.7882,217.54238999999998 L112.41820000000001,216.07238999999998 C112.8982,214.95539 113.01320000000001,214.00739 112.76620000000001,213.22939 C112.5202,212.45139 111.9162,211.85738999999998 110.9552,211.44439 C109.9162,211.00139 109.0092,210.94839 108.2322,211.28739 C107.45320000000001,211.62739 106.8292,212.34638999999999 106.3602,213.44339 zM99.56920000000001,218.90339 L102.76620000000001,211.43538999999998 C104.0172,208.51439 105.4842,206.58639 107.1662,205.64739 C108.84920000000001,204.71039 110.8232,204.72638999999998 113.08720000000001,205.69539 C115.36120000000001,206.66939 116.79220000000001,208.09939 117.3812,209.98639 C117.97120000000001,211.87439 117.7012,214.13639 116.5712,216.77239 L115.5522,219.15339 L122.8442,222.27539 L120.4582,227.84739 z" fill="#1e1e1c" id="svg_28"/>
<path d="M115.3275,194.74759 L120.3925,197.61459 L121.4415,195.76459 C122.0875,194.62259 122.3645,193.64959 122.2745,192.84559000000002 C122.1855,192.04059 121.7265,191.40559 120.9015,190.93859 C120.0115,190.43359 119.1775,190.38159000000002 118.3995,190.78059 C117.6225,191.17959 116.8455,192.06659 116.0685,193.43859 zM108.9265,197.94159 L113.37650000000001,190.07859 C114.8575,187.46159 116.3815,185.76159 117.9465,184.97459 C119.5125,184.18859 121.1635,184.28759 122.89750000000001,185.26859000000002 C124.1785,185.99459000000002 125.0425,186.92359 125.4895,188.05959000000001 C125.9375,189.19459 125.9425,190.47159 125.5075,191.89059 C126.4755,191.06759 128.0295,190.84459 130.1685,191.22159 L130.1815,191.22959 L138.0755,192.57359 L134.9645,198.07059 L128.5655,196.74659 C127.5375,196.53059 126.7185,196.57059 126.1105,196.86359000000002 C125.50450000000001,197.15759 124.9115,197.81359 124.3335,198.83359000000002 L123.9005,199.59959 L131.6245,203.97159 L128.7025,209.13459 z" fill="#1e1e1c" id="svg_29"/>
<path d="M121.0092,177.6318 L124.4312,172.6298 L143.1882,185.4558 L139.7672,190.4598 z" fill="#1e1e1c" id="svg_30"/>
<path d="M128.1996,166.729 L134.2356,159.729 L147.2936,165.49800000000002 C147.8096,165.732 148.35660000000001,166.032 148.9356,166.39700000000002 C149.5146,166.763 150.1166,167.18 150.7406,167.64700000000002 C150.1516,167.04100000000003 149.6276,166.46200000000002 149.16660000000002,165.91000000000003 C148.7056,165.358 148.3356,164.863 148.05360000000002,164.42200000000003 L140.5226,152.43800000000002 L146.4656,145.54700000000003 L163.6746,160.387 L159.9556,164.698 L148.4026,154.73600000000002 C147.8536,154.262 147.2986,153.75500000000002 146.73760000000001,153.214 C146.1756,152.674 145.5876,152.08300000000003 144.9736,151.44000000000003 C145.39260000000002,151.99900000000002 145.7866,152.542 146.1536,153.07000000000002 C146.5216,153.59900000000002 146.8556,154.113 147.1576,154.61200000000002 L156.1446,169.119 L152.5936,173.23600000000002 L137.20260000000002,166.574 C136.6716,166.341 136.0966,166.06300000000002 135.4796,165.74200000000002 C134.8616,165.42100000000002 134.2216,165.066 133.5576,164.67600000000002 C134.42260000000002,165.323 135.1956,165.90900000000002 135.8766,166.43300000000002 C136.5576,166.95800000000003 137.0636,167.36200000000002 137.3946,167.64700000000002 L148.87560000000002,177.548 L145.4086,181.568 z" fill="#1e1e1c" id="svg_31"/>
<path d="M162.4437,138.1016 L165.8127,146.4646 L170.1827,142.6676 zM156.45170000000002,136.5926 L161.9677,131.7986 L183.3667,143.3096 L178.4767,147.55759999999998 L174.10070000000002,144.9836 L167.4987,150.7206 L169.37470000000002,155.4666 L164.8477,159.3996 z" fill="#1e1e1c" id="svg_32"/>
<path d="M178.9506,123.825199 L182.2306,128.634199 L183.98860000000002,127.435199 C185.07160000000002,126.696199 185.75060000000002,125.947199 186.02460000000002,125.185199 C186.2996,124.423199 186.1696,123.65119899999999 185.6346,122.867199 C185.0576,122.022199 184.3326,121.607199 183.45860000000002,121.621199 C182.5856,121.637199 181.4966,122.089199 180.1926,122.978199 zM171.79760000000002,123.866199 L179.26160000000002,118.775199 C181.74460000000002,117.080199 183.86260000000001,116.225199 185.6146,116.212199 C187.3656,116.198199 188.8046,117.01419899999999 189.92860000000002,118.661199 C190.7576,119.876199 191.1216,121.092199 191.0216,122.308199 C190.92260000000002,123.525199 190.36360000000002,124.674199 189.34660000000002,125.755199 C190.5786,125.444199 192.07160000000002,125.92819899999999 193.8236,127.210199 L193.83360000000002,127.224199 L200.3236,131.914199 L195.1046,135.473199 L189.9486,131.461199 C189.11960000000002,130.813199 188.3676,130.488199 187.6936,130.48319899999998 C187.01860000000002,130.478199 186.19760000000002,130.806199 185.2286,131.468199 L184.5026,131.963199 L189.5046,139.295199 L184.6036,142.638199 z" fill="#1e1e1c" id="svg_33"/>
<path d="M191.6039,110.97171 L196.8809,107.99171 L208.0509,127.78071 L202.7739,130.75971 z" fill="#1e1e1c" id="svg_34"/>
<path d="M213.2299,105.5293 L214.06289999999998,114.5073 L219.33689999999999,112.1203 zM207.91989999999998,102.3683 L214.5779,99.3553 L231.7849,116.5103 L225.8849,119.1803 L222.4279,115.46130000000001 L214.4589,119.06830000000001 L214.90089999999998,124.15230000000001 L209.43589999999998,126.62530000000001 z" fill="#1e1e1c" id="svg_35"/>
<path d="M359.6254,91.228 L357.9764,95.713 C357.2704,95.012 356.5084,94.43199999999999 355.6884,93.97099999999999 C354.8684,93.512 353.9934,93.166 353.0624,92.937 C350.8564,92.39399999999999 348.9434,92.603 347.3234,93.564 C345.7024,94.527 344.6264,96.089 344.0924,98.252 C343.5564,100.42699999999999 343.7934,102.32199999999999 344.8064,103.937 C345.8184,105.554 347.4334,106.636 349.6474,107.18299999999999 C350.5174,107.39699999999999 351.43240000000003,107.50999999999999 352.3894,107.52 C353.3474,107.53099999999999 354.3394,107.43799999999999 355.3654,107.24 L354.5024,112.282 C353.37440000000004,112.31099999999999 352.2654,112.26899999999999 351.1734,112.15299999999999 C350.0824,112.038 348.9984,111.848 347.9214,111.582 C343.91540000000003,110.595 341.0494,108.798 339.3174,106.192 C337.5894,103.58699999999999 337.1784,100.446 338.0824,96.771 C338.9474,93.262 340.7354,90.75 343.4504,89.234 C346.1614,87.717 349.4074,87.42399999999999 353.1864,88.356 C354.4484,88.667 355.6224,89.06299999999999 356.7044,89.544 C357.7894,90.02499999999999 358.7634,90.586 359.6254,91.228 " fill="#1e1e1c" id="svg_36"/>
<path d="M374.3334,99.80661 C372.87039999999996,99.24361 371.4524,99.42061000000001 370.0774,100.33661000000001 C368.7034,101.25261 367.6094,102.76561000000001 366.79839999999996,104.87461 C365.9824,106.99361 365.7734,108.85561000000001 366.17339999999996,110.46061 C366.57239999999996,112.06461 367.50939999999997,113.15061 368.9804,113.71661 C370.4434,114.27961 371.8544,114.09961000000001 373.21439999999996,113.17861 C374.5734,112.25661000000001 375.6644,110.73161 376.4844,108.60161000000001 C377.2924,106.50261 377.4994,104.65161 377.1044,103.04961 C376.7104,101.44761000000001 375.7874,100.36561 374.3334,99.80661 M375.9194,95.68661 C379.21139999999997,96.95461 381.4074,98.92761 382.5084,101.60761000000001 C383.6074,104.28661000000001 383.4874,107.36761000000001 382.14639999999997,110.84961000000001 C380.8034,114.34161 378.8284,116.70861000000001 376.2204,117.95061000000001 C373.6114,119.19061 370.66139999999996,119.17761 367.3674,117.91061 C364.0544,116.63561000000001 361.8434,114.66261 360.73539999999997,111.99161000000001 C359.62539999999996,109.32061 359.7434,106.23861000000001 361.08939999999996,102.74561 C362.4294,99.26461 364.4094,96.89961000000001 367.0304,95.65161 C369.6534,94.40461 372.61539999999997,94.41561 375.9194,95.68661 " fill="#1e1e1c" id="svg_37"/>
<path d="M391.7767,103.04251 L397.14570000000003,105.85050999999999 L388.7007,122.00650999999999 L396.7927,126.23651 L394.7127,130.21950999999999 L381.2487,123.18150999999999 z" fill="#1e1e1c" id="svg_38"/>
<path d="M409.7572,112.77289 L422.9422,121.45089 L420.6032,125.00389 L412.48220000000003,119.65889 L409.95820000000003,123.49189 L417.6252,128.53889 L415.25120000000004,132.14589 L407.58320000000003,127.09889000000001 L404.7362,131.42589 L413.1642,136.97389 L410.7552,140.63389 L397.2642,131.75389 z" fill="#1e1e1c" id="svg_39"/>
<path d="M443.5951,138.793 L440.1551,142.064 C439.7821,141.067 439.29110000000003,140.143 438.6851,139.291 C438.0761,138.439 437.3661,137.67000000000002 436.5501,136.983 C434.6481,135.38400000000001 432.7061,134.649 430.7231,134.779 C428.7421,134.909 426.9851,135.883 425.4541,137.703 C423.9791,139.458 423.2951,141.264 423.4041,143.124 C423.5111,144.983 424.3931,146.609 426.0491,148.002 C426.3991,148.298 426.7371,148.55200000000002 427.0571,148.767 C427.3781,148.981 427.6971,149.16500000000002 428.0131,149.32 L431.0691,145.685 L428.3901,143.431 L431.1481,140.151 L438.1361,146.029 L429.9841,155.721 C428.8501,155.214 427.7341,154.609 426.6391,153.91 C425.54110000000003,153.21 424.4741,152.424 423.4391,151.553 C420.0521,148.70600000000002 418.1221,145.779 417.6471,142.775 C417.1721,139.77 418.16610000000003,136.804 420.6291,133.875 C423.0931,130.945 425.9021,129.417 429.05310000000003,129.28900000000002 C432.2051,129.16 435.3911,130.451 438.6151,133.162 C439.57710000000003,133.972 440.4731,134.848 441.30310000000003,135.79000000000002 C442.1331,136.732 442.8981,137.733 443.5951,138.793 " fill="#1e1e1c" id="svg_40"/>
<path d="M448.8861,143.41309 L453.1451,147.72709 L436.9691,163.68809000000002 L432.7101,159.37309000000002 z" fill="#1e1e1c" id="svg_41"/>
<path d="M461.4623,162.95999 C460.4703,161.74699 459.14930000000004,161.19699 457.50230000000005,161.31299 C455.8543,161.42599 454.15430000000003,162.19899 452.4053,163.62899000000002 C450.64630000000005,165.06499 449.5423,166.57999 449.0953,168.17099000000002 C448.64630000000005,169.76299 448.92130000000003,171.16899 449.92130000000003,172.39199 C450.9123,173.60499000000002 452.2273,174.14799 453.8643,174.02199000000002 C455.50230000000005,173.89499 457.20630000000006,173.10899 458.9723,171.66599 C460.7123,170.24299 461.81030000000004,168.73699 462.2613,167.14899 C462.7123,165.56299 462.44730000000004,164.16599 461.4623,162.95999 M464.88030000000003,160.16799 C467.1113,162.89999 468.04330000000004,165.70299 467.67030000000005,168.57399 C467.2973,171.44599 465.66630000000004,174.06299 462.7783,176.42399 C459.88030000000003,178.79099 456.99030000000005,179.86899 454.11030000000005,179.65399 C451.23030000000006,179.43999 448.67330000000004,177.96699 446.4413,175.23499 C444.19530000000003,172.48599000000002 443.2513,169.67699000000002 443.6113,166.80799000000002 C443.9743,163.93699 445.60330000000005,161.31999000000002 448.4993,158.95199 C451.38930000000005,156.58999 454.2803,155.51799 457.1773,155.73299 C460.07230000000004,155.94899 462.6403,157.42699000000002 464.88030000000003,160.16799 " fill="#1e1e1c" id="svg_42"/>
<path d="M488.6215,197.53079 L484.31750000000005,199.43979 C484.2065,198.43779 484.02750000000003,197.51679 483.78150000000005,196.67678999999998 C483.5355,195.83679 483.21450000000004,195.06879 482.8235,194.37179 C482.22150000000005,193.30379 481.5835,192.56579 480.90650000000005,192.15679 C480.22950000000003,191.74878999999999 479.59450000000004,191.71179 479.00050000000005,192.04578999999998 C478.5815,192.28179 478.3045,192.63979 478.1655,193.12279 C478.0265,193.60379 478.0265,194.20979 478.1675,194.93679 C478.21750000000003,195.17779 478.28950000000003,195.52279 478.3835,195.97179 C478.9255,198.65179 479.12850000000003,200.51979 478.9895,201.57779 C478.84250000000003,202.57779 478.5135,203.43479 478.0065,204.14979 C477.4975,204.86379 476.7765,205.48279 475.8475,206.00679 C473.6655,207.23579 471.5915,207.44879 469.62850000000003,206.64579 C467.66650000000004,205.84279 465.9105,204.06479 464.3625,201.31579 C463.80150000000003,200.32179 463.31050000000005,199.28579 462.8885,198.20879 C462.46450000000004,197.13179 462.11650000000003,196.02179 461.8415,194.88079 L466.5095,192.83979 C466.6125,194.00379 466.80350000000004,195.08679 467.08050000000003,196.08679 C467.3555,197.08778999999998 467.71450000000004,197.97879 468.15250000000003,198.75979 C468.73850000000004,199.79979 469.3965,200.51179 470.12750000000005,200.89579 C470.8555,201.27979 471.5565,201.28379 472.2255,200.90679 C473.0525,200.44279 473.25550000000004,199.05379 472.83750000000003,196.74579 C472.73350000000005,196.19279 472.6575,195.76379 472.6095,195.46079 C472.2255,193.19279 472.25350000000003,191.40379 472.6965,190.08979 C473.13750000000005,188.77778999999998 474.0545,187.72879 475.44750000000005,186.94478999999998 C477.4365,185.82379 479.3645,185.67579 481.23350000000005,186.49479 C483.1005,187.31479 484.7835,189.05279 486.2805,191.71079 C486.82950000000005,192.68579 487.2995,193.65679 487.6895,194.62378999999999 C488.0815,195.58879 488.39250000000004,196.55879 488.6215,197.53079 " fill="#1e1e1c" id="svg_43"/>
<path d="M492.0043,203.73291 L498.2643,218.22191 L494.3583,219.90991 L490.5033,210.98391 L486.2883,212.80391 L489.9303,221.23091 L485.9663,222.94191 L482.3263,214.51591 L477.5693,216.57091 L481.5703,225.83391 L477.5493,227.57191 L471.1443,212.74491 z" fill="#1e1e1c" id="svg_44"/>
<path d="M505.4789,242.75931 L500.7819,243.63831 C501.0239,242.67331 501.1309,241.72131 501.1069,240.78131 C501.0819,239.84131 500.92990000000003,238.91231 500.65090000000004,237.99531 C499.9889,235.82231 498.8299,234.28631 497.1729,233.38631 C495.5169,232.48731 493.6249,232.36231 491.4929,233.01131 C489.35290000000003,233.66431 487.8449,234.83931 486.9759,236.53531 C486.1049,238.23331 486.0009,240.17331 486.6669,242.35531 C486.9279,243.21231 487.2989,244.05531 487.7799,244.88331 C488.25890000000004,245.71231 488.8469,246.51631 489.54290000000003,247.29731 L484.7709,249.13531 C484.1669,248.18131 483.6369,247.20731 483.1769,246.21031 C482.7179,245.21331 482.3269,244.18431 482.0029,243.12431 C480.8009,239.17731 480.8749,235.79431 482.2289,232.97531 C483.5829,230.15531 486.0699,228.19431 489.6899,227.09231 C493.1469,226.03831 496.22090000000003,226.28831 498.91290000000004,227.84231 C501.60290000000003,229.39531 503.5159,232.03431 504.65090000000004,235.75630999999998 C505.0299,237.00031 505.2909,238.21131 505.4309,239.38931 C505.5719,240.56631 505.5879,241.68931 505.4789,242.75931 " fill="#1e1e1c" id="svg_45"/>
<path d="M507.5961,248.67871 L508.6481,254.64771 L495.6221,256.94271 C493.71209999999996,257.27871 492.3811,257.80571 491.6311,258.52271 C490.88009999999997,259.23971 490.61609999999996,260.22271 490.8361,261.47171 C491.0621,262.75371 491.68809999999996,263.63770999999997 492.7161,264.12771 C493.7451,264.61771 495.1511,264.70671 496.9351,264.39171 L509.96009999999995,262.09671 L510.96209999999996,267.78171 L497.9371,270.07671 C494.64209999999997,270.65771 492.03209999999996,270.29771 490.1081,268.99671 C488.1851,267.69571 486.9411,265.44871 486.38009999999997,262.25771 C485.82309999999995,259.09571 486.22909999999996,256.57071 487.6011,254.67771 C488.97209999999995,252.78571 491.29609999999997,251.55070999999998 494.5721,250.97271 z" fill="#1e1e1c" id="svg_46"/>
<path d="M511.7963,274.9077 L512.1523,282.4627 L498.85229999999996,289.6857 C498.4043,289.9307 497.7813,290.22069999999997 496.9813,290.5587 C496.1803,290.8947 495.19829999999996,291.27169999999995 494.03229999999996,291.68969999999996 C495.14329999999995,291.4457 496.1633,291.2557 497.09529999999995,291.1217 C498.02829999999994,290.9867 498.88329999999996,290.9017 499.6613,290.86469999999997 L512.5192999999999,290.2587 L512.7773,295.7217 L490.0793,296.79069999999996 L489.7233,289.26669999999996 L503.5053,281.7657 C504.1413,281.41569999999996 504.8323,281.08869999999996 505.5823,280.7877 C506.3293,280.48569999999995 507.1473,280.2007 508.03029999999995,279.9357 C506.68829999999997,280.2127 505.45129999999995,280.42769999999996 504.32329999999996,280.5827 C503.1923,280.73769999999996 502.1973,280.8357 501.3363,280.8757 L489.3553,281.43969999999996 L489.0983,275.9767 z" fill="#1e1e1c" id="svg_47"/>
<path d="M507.7738,308.7104 L494.0348,307.5784 L493.8198,310.1924 C493.6458,312.3164 494.1098,314.0074 495.21479999999997,315.26439999999997 C496.3208,316.52139999999997 497.9788,317.2414 500.1868,317.4234 C502.37579999999997,317.60339999999997 504.1098,317.13939999999997 505.3888,316.0324 C506.6688,314.9224 507.39979999999997,313.2484 507.5838,311.0064 zM512.6408,302.9994 L511.9868,310.9354 C511.8148,313.0074 511.54179999999997,314.7304 511.1678,316.1064 C510.7928,317.4814 510.2968,318.5884 509.6828,319.42539999999997 C508.4948,320.98539999999997 507.0618,322.1204 505.3828,322.8264 C503.7048,323.5324 501.8018,323.7994 499.6758,323.6234 C497.3388,323.4304 495.3888,322.8284 493.8238,321.8154 C492.2608,320.8064 491.0268,319.3584 490.1228,317.4774 C489.6858,316.5414 489.4088,315.3694 489.2908,313.9584 C489.1698,312.5464 489.2078,310.6664 489.4018,308.3194 L489.9948,301.1314 z" fill="#1e1e1c" id="svg_48"/>
<path d="M502.9506,338.7827 L495.2196,334.14169999999996 L494.0246,339.80469999999997 zM508.6416,336.3707 L507.1326,343.5207 L483.1216,347.24469999999997 L484.4586,340.90869999999995 L489.5016,340.3227 L491.3086,331.7627 L486.9486,329.1117 L488.1886,323.24269999999996 z" fill="#1e1e1c" id="svg_49"/>
<path d="M498.3881,360.1069 L492.87510000000003,358.2439 L492.1951,360.2579 C491.7751,361.49989999999997 491.6831,362.5079 491.92310000000003,363.2799 C492.1631,364.0539 492.73310000000004,364.5929 493.6311,364.8969 C494.6001,365.2239 495.4301,365.1179 496.1171,364.5799 C496.8071,364.0419 497.4031,363.0249 497.9091,361.5309 zM504.07710000000003,355.7659 L501.1831,364.3259 C500.2201,367.1739 499.0441,369.1299 497.6541,370.1959 C496.2641,371.2649 494.62510000000003,371.4779 492.7371,370.8399 C491.3421,370.3679 490.3191,369.6169 489.6671,368.5859 C489.0131,367.5549 488.7671,366.3029 488.92810000000003,364.8269 C488.1311,365.8159 486.64910000000003,366.3269 484.4771,366.3599 L484.4611,366.3539 L476.4551,366.5179 L478.4781,360.5349 L485.0111,360.6319 C486.0631,360.6509 486.8601,360.45889999999997 487.4011,360.0549 C487.9431,359.6529 488.4001,358.8979 488.7751,357.78589999999997 L489.0561,356.9519 L480.6501,354.1119 L482.54810000000003,348.4909 z" fill="#1e1e1c" id="svg_50"/>
<path d="M496.0199,377.98829 L493.5979,383.54429 L472.76890000000003,374.46129 L475.1909,368.90529 z" fill="#1e1e1c" id="svg_51"/>
<path d="M482.4711,397.05183 C483.23109999999997,395.68083 483.2541,394.25083 482.5351,392.76183 C481.82009999999997,391.27383 480.47409999999996,389.98283 478.49609999999996,388.88683 C476.5091,387.78583 474.6971,387.32083 473.0501,387.49383 C471.40709999999996,387.66783 470.2011,388.44483 469.43809999999996,389.82283 C468.67609999999996,391.19383 468.65909999999997,392.61782999999997 469.3841,394.09183 C470.10909999999996,395.56583 471.46909999999997,396.85683 473.46209999999996,397.96283 C475.43109999999996,399.05283 477.23409999999996,399.51483 478.8751,399.34483 C480.51709999999997,399.17783 481.7161,398.41383 482.4711,397.05183 M486.33209999999997,399.19283 C484.6201,402.27882999999997 482.3621,404.17883 479.5571,404.89783 C476.7491,405.61583 473.7151,405.06983 470.4521,403.25983 C467.1801,401.44482999999997 465.1101,399.16083 464.2421,396.40583 C463.3741,393.65083 463.7971,390.72983 465.5071,387.64483 C467.22909999999996,384.53983 469.4901,382.62283 472.2881,381.89683 C475.08709999999996,381.16783 478.1221,381.71283 481.39509999999996,383.52783 C484.6581,385.33683 486.7261,387.62683 487.59709999999995,390.39683 C488.4711,393.16383 488.0481,396.09683 486.33209999999997,399.19283 " fill="#1e1e1c" id="svg_52"/>
</g>

</g></svg>