<svg width="31" height="31" viewBox="0 0 31 31" fill="none" xmlns="http://www.w3.org/2000/svg">
<path d="M0 5C0 2.23858 2.23858 0 5 0H26C28.7614 0 31 2.23858 31 5V26C31 28.7614 28.7614 31 26 31H5C2.23858 31 0 28.7614 0 26V5Z" fill="#E8232F"/>
<g clip-path="url(#clip0_0_1)">
<path d="M25.6562 15.9798C25.6671 21.8511 20.879 26.6521 15.0077 26.6562C12.4719 26.658 10.1427 25.7741 8.31226 24.2968C7.83629 23.9126 7.80071 23.1993 8.23324 22.7668L8.71737 22.2826C9.08729 21.9127 9.67785 21.8722 10.0877 22.1974C11.4363 23.2675 13.1429 23.9062 15 23.9062C19.3701 23.9062 22.9062 20.3694 22.9062 16C22.9062 11.6299 19.3694 8.09375 15 8.09375C12.9025 8.09375 10.9975 8.90882 9.58302 10.2393L11.7639 12.4201C12.197 12.8532 11.8902 13.5938 11.2777 13.5938H5.03125C4.65154 13.5938 4.34375 13.286 4.34375 12.9062V6.65975C4.34375 6.04728 5.08427 5.74052 5.5174 6.17361L7.63885 8.29506C9.55195 6.46678 12.1448 5.34375 15 5.34375C20.8786 5.34375 25.6454 10.1038 25.6562 15.9798ZM17.8827 19.3651L18.3048 18.8224C18.6544 18.3728 18.5735 17.7249 18.1239 17.3753L16.375 16.015V11.5312C16.375 10.9617 15.9133 10.5 15.3438 10.5H14.6562C14.0867 10.5 13.625 10.9617 13.625 11.5312V17.36L16.4355 19.546C16.8851 19.8956 17.533 19.8147 17.8827 19.3651Z" fill="white"/>
</g>
<defs>
<clipPath id="clip0_0_1">
<rect width="22" height="22" fill="white" transform="translate(4 5)"/>
</clipPath>
</defs>
</svg>
