<svg width="31" height="31" viewBox="0 0 31 31" fill="none" xmlns="http://www.w3.org/2000/svg">
<path d="M0 5C0 2.23858 2.23858 0 5 0H26C28.7614 0 31 2.23858 31 5V26C31 28.7614 28.7614 31 26 31H5C2.23858 31 0 28.7614 0 26V5Z" fill="#1DB954"/>
<g clip-path="url(#clip0_0_1)">
<path d="M16 5.34375C10.1176 5.34375 5.34375 10.1176 5.34375 16C5.34375 21.8824 10.1176 26.6562 16 26.6562C21.8824 26.6562 26.6562 21.8824 26.6562 16C26.6562 10.1176 21.8824 5.34375 16 5.34375ZM20.327 21.023C20.1465 21.023 20.0348 20.9672 19.8672 20.8684C17.1859 19.2527 14.0664 19.184 10.9855 19.8156C10.818 19.8586 10.5988 19.9273 10.4742 19.9273C10.0574 19.9273 9.79531 19.5965 9.79531 19.2484C9.79531 18.8059 10.0574 18.5953 10.3797 18.5266C13.8988 17.7488 17.4953 17.8176 20.5633 19.6523C20.8254 19.8199 20.9801 19.9703 20.9801 20.3613C20.9801 20.7523 20.675 21.023 20.327 21.023ZM21.4828 18.2043C21.2594 18.2043 21.109 18.1055 20.9543 18.0238C18.2687 16.434 14.2641 15.7938 10.702 16.7605C10.4957 16.8164 10.384 16.8723 10.1906 16.8723C9.73086 16.8723 9.35703 16.4984 9.35703 16.0387C9.35703 15.5789 9.58047 15.2738 10.023 15.1492C11.2176 14.8141 12.4379 14.5648 14.2254 14.5648C17.0141 14.5648 19.7082 15.2566 21.8309 16.5199C22.1789 16.7262 22.3164 16.9926 22.3164 17.3664C22.3121 17.8305 21.9512 18.2043 21.4828 18.2043ZM22.8148 14.9301C22.5914 14.9301 22.4539 14.8742 22.2605 14.7625C19.2012 12.9363 13.7312 12.498 10.1906 13.4863C10.0359 13.5293 9.84258 13.598 9.63633 13.598C9.06914 13.598 8.63516 13.1555 8.63516 12.584C8.63516 11.9996 8.99609 11.6688 9.38281 11.557C10.8953 11.1145 12.5883 10.9039 14.4316 10.9039C17.5684 10.9039 20.8555 11.557 23.2574 12.9578C23.5926 13.1512 23.8117 13.4176 23.8117 13.9289C23.8117 14.5133 23.3391 14.9301 22.8148 14.9301Z" fill="white"/>
</g>
<defs>
<clipPath id="clip0_0_1">
<rect width="22" height="22" fill="white" transform="translate(5 5)"/>
</clipPath>
</defs>
</svg>